<?xml version="1.0" encoding="UTF-8"?>
<svg id="Guides" xmlns="http://www.w3.org/2000/svg" viewBox="0 0 1043.28 274.62">
  <defs>
    <style>
      .cls-1 {
        stroke-width: 0px;
      }
    </style>
  </defs>
  <g>
    <path class="cls-1" d="m239.19,88h11.11s33.05,66.78,33.05,66.78l33.05-66.78h11.11s0,81.17,0,81.17h-9.86s0-63.49,0-63.49l-31.5,63.49h-5.6s-31.5-63.49-31.5-63.49v63.49s-9.86,0-9.86,0v-81.17Z"/>
    <path class="cls-1" d="m347.81,160.09h25.32s0-63.01,0-63.01h-25.32v-9.08s60.78,0,60.78,0v9.08h-25.32s0,63.01,0,63.01h25.32v9.08s-60.78,0-60.78,0v-9.08Z"/>
    <path class="cls-1" d="m428.79,88h10.15s53.54,67.45,53.54,67.45v-67.45s9.95,0,9.95,0v81.17s-10.05,0-10.05,0l-53.54-67.45v67.45s-10.05,0-10.05,0v-81.17Z"/>
    <path class="cls-1" d="m527.32,88h37.78c22.61,0,37.49,12.08,37.49,40.59,0,28.31-14.98,40.59-37.49,40.59h-37.78s0-81.17,0-81.17Zm37.69,72.09c18.84,0,27.06-10.34,27.06-31.5,0-21.16-8.21-31.5-27.06-31.5h-27.54s0,63.01,0,63.01h27.54Z"/>
    <path class="cls-1" d="m619.7,128.49c0-22.61,14.01-41.46,41.55-41.46,23.48,0,38.27,14.5,39.81,31.6l.1,1.06h-10.63s-.1-1.06-.1-1.06c-1.16-13.34-12.18-22.23-28.89-22.23-22.13,0-31.41,14.4-31.41,32.08,0,18.46,9.66,32.28,30.05,32.28,16.91,0,28.8-8.99,30.15-24.64h-37.11s0-8.5,0-8.5h47.93s0,41.55,0,41.55h-7.25s-1.16-16.72-1.16-16.72c-5.51,10.24-16.33,17.68-32.66,17.68-26.38,0-40.39-18.75-40.39-41.65Z"/>
    <path class="cls-1" d="m751.77,88h12.66s34.21,81.17,34.21,81.17h-10.92s-6.57-15.85-6.57-15.85h-46.1s-6.57,15.85-6.57,15.85h-10.92s34.21-81.17,34.21-81.17Zm25.61,56.24l-18.55-45.03-.77-1.93-.77,1.93-18.55,45.03h38.65Z"/>
    <path class="cls-1" d="m875.01,161.92v-10.92c0-11.6-8.41-14.3-18.17-14.3h-33.34s0,32.47,0,32.47h-10.15s0-81.17,0-81.17h43.78c18.46,0,28.22,8.02,28.22,24.06,0,11.31-5.22,17.97-13.92,20,8.7,2.03,13.72,8.7,13.72,18.36v11.5c0,2.42,0,5.9,1.16,7.25h-10.15c-1.16-1.35-1.16-4.74-1.16-7.25Zm-18.07-34.31c9.28,0,17.88-1.16,17.88-15.56,0-11.69-7.05-14.98-19.13-14.98h-32.18s0,30.54,0,30.54h33.44Z"/>
    <path class="cls-1" d="m907.22,88h37.78c22.61,0,37.49,12.08,37.49,40.59,0,28.31-14.98,40.59-37.49,40.59h-37.78s0-81.17,0-81.17Zm37.69,72.09c18.84,0,27.06-10.34,27.06-31.5,0-21.16-8.21-31.5-27.06-31.5h-27.54s0,63.01,0,63.01h27.54Z"/>
  </g>
  <path class="cls-1" d="m174.08,60.71c2.41,0,4.35,1.95,4.35,4.35v72.23c0,4.38-1.02,8.63-3,12.52-1.1,2.17-2.52,4.17-4.13,5.99l-51.48,58.03-51.47-58.02c-1.62-1.82-3.04-3.82-4.14-6-1.97-3.9-3-8.15-3-12.53v-72.23c0-2.41,1.95-4.35,4.35-4.35h4.67l-.11,76.32c0,2.5.54,5.05,1.55,7.43.87,2.05,2.11,3.91,3.58,5.57l44.56,50.12,44.65-50.22c1.08-1.22,2.05-2.55,2.8-3.99,1.4-2.69,2.13-5.63,2.13-8.64V60.71h4.67Z"/>
  <g>
    <polygon class="cls-1" points="106.27 151.36 97.22 151.36 97.22 160.65 106.27 171.23 106.27 151.36"/>
    <rect class="cls-1" x="97.22" y="124.23" width="9.04" height="18.09"/>
    <polygon class="cls-1" points="124.36 181.82 124.36 142.32 115.31 142.32 115.31 181.8 119.83 187.08 124.36 181.82"/>
    <rect class="cls-1" x="115.31" y="106.14" width="9.04" height="27.13"/>
    <rect class="cls-1" x="115.31" y="60.71" width="9.04" height="35.38"/>
    <polygon class="cls-1" points="142.45 124.23 133.4 124.23 133.4 171.29 142.45 160.76 142.45 124.23"/>
    <rect class="cls-1" x="133.4" y="60.71" width="9.04" height="54.47"/>
    <rect class="cls-1" x="151.49" y="60.71" width="9.04" height="18.2"/>
    <rect class="cls-1" x="151.49" y="88.05" width="9.04" height="27.13"/>
    <path class="cls-1" d="m151.49,124.23v26.01l7.83-9.12c.78-.98,1.21-2.2,1.21-3.46v-13.43h-9.04Z"/>
    <rect class="cls-1" x="97.22" y="60.71" width="9.04" height="54.47"/>
    <path class="cls-1" d="m88.18,150.08v-34.89h-9.04v22.28c0,1.23.41,2.42,1.15,3.39l7.89,9.23Z"/>
    <rect class="cls-1" x="79.13" y="60.71" width="9.04" height="44.92"/>
  </g>
</svg>