<?xml version="1.0" encoding="UTF-8" standalone="no"?>
<svg
   id="Guides"
   viewBox="0 0 1043.28 274.62"
   version="1.1"
   sodipodi:docname="MINDGARD_Mono_RGB-white.svg"
   width="1043.28"
   height="274.62"
   inkscape:version="1.3.2 (091e20ef0f, 2023-11-25)"
   xmlns:inkscape="http://www.inkscape.org/namespaces/inkscape"
   xmlns:sodipodi="http://sodipodi.sourceforge.net/DTD/sodipodi-0.dtd"
   xmlns="http://www.w3.org/2000/svg"
   xmlns:svg="http://www.w3.org/2000/svg">
  <sodipodi:namedview
     id="namedview16"
     pagecolor="#ffffff"
     bordercolor="#000000"
     borderopacity="0.25"
     inkscape:showpageshadow="2"
     inkscape:pageopacity="0.0"
     inkscape:pagecheckerboard="0"
     inkscape:deskcolor="#d1d1d1"
     inkscape:zoom="1.4243539"
     inkscape:cx="521.64001"
     inkscape:cy="137.25521"
     inkscape:window-width="1920"
     inkscape:window-height="1128"
     inkscape:window-x="0"
     inkscape:window-y="0"
     inkscape:window-maximized="1"
     inkscape:current-layer="Guides" />
  <defs
     id="defs1">
    <style
       id="style1">
      .cls-1 {
        stroke-width: 0px;
      }
    </style>
  </defs>
  <g
     id="g8"
     style="fill:#f9f9f9">
    <path
       class="cls-1"
       d="m 239.19,88 h 11.11 c 0,0 33.05,66.78 33.05,66.78 L 316.4,88 h 11.11 c 0,0 0,81.17 0,81.17 h -9.86 c 0,0 0,-63.49 0,-63.49 l -31.5,63.49 h -5.6 c 0,0 -31.5,-63.49 -31.5,-63.49 v 63.49 c 0,0 -9.86,0 -9.86,0 z"
       id="path1"
       style="fill:#f9f9f9" />
    <path
       class="cls-1"
       d="m 347.81,160.09 h 25.32 c 0,0 0,-63.01 0,-63.01 H 347.81 V 88 c 0,0 60.78,0 60.78,0 v 9.08 h -25.32 c 0,0 0,63.01 0,63.01 h 25.32 v 9.08 c 0,0 -60.78,0 -60.78,0 z"
       id="path2"
       style="fill:#f9f9f9" />
    <path
       class="cls-1"
       d="m 428.79,88 h 10.15 c 0,0 53.54,67.45 53.54,67.45 V 88 c 0,0 9.95,0 9.95,0 v 81.17 c 0,0 -10.05,0 -10.05,0 l -53.54,-67.45 v 67.45 c 0,0 -10.05,0 -10.05,0 z"
       id="path3"
       style="fill:#f9f9f9" />
    <path
       class="cls-1"
       d="m 527.32,88 h 37.78 c 22.61,0 37.49,12.08 37.49,40.59 0,28.31 -14.98,40.59 -37.49,40.59 h -37.78 c 0,0 0,-81.17 0,-81.17 z m 37.69,72.09 c 18.84,0 27.06,-10.34 27.06,-31.5 0,-21.16 -8.21,-31.5 -27.06,-31.5 h -27.54 c 0,0 0,63.01 0,63.01 h 27.54 z"
       id="path4"
       style="fill:#f9f9f9" />
    <path
       class="cls-1"
       d="m 619.7,128.49 c 0,-22.61 14.01,-41.46 41.55,-41.46 23.48,0 38.27,14.5 39.81,31.6 l 0.1,1.06 h -10.63 c 0,0 -0.1,-1.06 -0.1,-1.06 -1.16,-13.34 -12.18,-22.23 -28.89,-22.23 -22.13,0 -31.41,14.4 -31.41,32.08 0,18.46 9.66,32.28 30.05,32.28 16.91,0 28.8,-8.99 30.15,-24.64 h -37.11 c 0,0 0,-8.5 0,-8.5 h 47.93 c 0,0 0,41.55 0,41.55 h -7.25 c 0,0 -1.16,-16.72 -1.16,-16.72 -5.51,10.24 -16.33,17.68 -32.66,17.68 -26.38,0 -40.39,-18.75 -40.39,-41.65 z"
       id="path5"
       style="fill:#f9f9f9" />
    <path
       class="cls-1"
       d="m 751.77,88 h 12.66 c 0,0 34.21,81.17 34.21,81.17 h -10.92 c 0,0 -6.57,-15.85 -6.57,-15.85 h -46.1 c 0,0 -6.57,15.85 -6.57,15.85 h -10.92 c 0,0 34.21,-81.17 34.21,-81.17 z m 25.61,56.24 -18.55,-45.03 -0.77,-1.93 -0.77,1.93 -18.55,45.03 h 38.65 z"
       id="path6"
       style="fill:#f9f9f9" />
    <path
       class="cls-1"
       d="M 875.01,161.92 V 151 c 0,-11.6 -8.41,-14.3 -18.17,-14.3 H 823.5 c 0,0 0,32.47 0,32.47 h -10.15 c 0,0 0,-81.17 0,-81.17 h 43.78 c 18.46,0 28.22,8.02 28.22,24.06 0,11.31 -5.22,17.97 -13.92,20 8.7,2.03 13.72,8.7 13.72,18.36 v 11.5 c 0,2.42 0,5.9 1.16,7.25 H 876.16 C 875,167.82 875,164.43 875,161.92 Z m -18.07,-34.31 c 9.28,0 17.88,-1.16 17.88,-15.56 0,-11.69 -7.05,-14.98 -19.13,-14.98 h -32.18 c 0,0 0,30.54 0,30.54 h 33.44 z"
       id="path7"
       style="fill:#f9f9f9" />
    <path
       class="cls-1"
       d="M 907.22,88 H 945 c 22.61,0 37.49,12.08 37.49,40.59 0,28.31 -14.98,40.59 -37.49,40.59 h -37.78 c 0,0 0,-81.17 0,-81.17 z m 37.69,72.09 c 18.84,0 27.06,-10.34 27.06,-31.5 0,-21.16 -8.21,-31.5 -27.06,-31.5 h -27.54 c 0,0 0,63.01 0,63.01 h 27.54 z"
       id="path8"
       style="fill:#f9f9f9" />
  </g>
  <path
     class="cls-1"
     d="m 174.08,60.71 c 2.41,0 4.35,1.95 4.35,4.35 v 72.23 c 0,4.38 -1.02,8.63 -3,12.52 -1.1,2.17 -2.52,4.17 -4.13,5.99 l -51.48,58.03 -51.47,-58.02 c -1.62,-1.82 -3.04,-3.82 -4.14,-6 -1.97,-3.9 -3,-8.15 -3,-12.53 V 65.05 c 0,-2.41 1.95,-4.35 4.35,-4.35 h 4.67 l -0.11,76.32 c 0,2.5 0.54,5.05 1.55,7.43 0.87,2.05 2.11,3.91 3.58,5.57 l 44.56,50.12 44.65,-50.22 c 1.08,-1.22 2.05,-2.55 2.8,-3.99 1.4,-2.69 2.13,-5.63 2.13,-8.64 V 60.71 h 4.67 z"
     id="path9"
     style="fill:#f9f9f9" />
  <g
     id="g16"
     style="fill:#f9f9f9">
    <polygon
       class="cls-1"
       points="106.27,171.23 106.27,151.36 97.22,151.36 97.22,160.65 "
       id="polygon9"
       style="fill:#f9f9f9" />
    <rect
       class="cls-1"
       x="97.220001"
       y="124.23"
       width="9.04"
       height="18.09"
       id="rect9"
       style="fill:#f9f9f9" />
    <polygon
       class="cls-1"
       points="115.31,181.8 119.83,187.08 124.36,181.82 124.36,142.32 115.31,142.32 "
       id="polygon10"
       style="fill:#f9f9f9" />
    <rect
       class="cls-1"
       x="115.31"
       y="106.14"
       width="9.04"
       height="27.129999"
       id="rect10"
       style="fill:#f9f9f9" />
    <rect
       class="cls-1"
       x="115.31"
       y="60.709999"
       width="9.04"
       height="35.380001"
       id="rect11"
       style="fill:#f9f9f9" />
    <polygon
       class="cls-1"
       points="142.45,160.76 142.45,124.23 133.4,124.23 133.4,171.29 "
       id="polygon11"
       style="fill:#f9f9f9" />
    <rect
       class="cls-1"
       x="133.39999"
       y="60.709999"
       width="9.04"
       height="54.470001"
       id="rect12"
       style="fill:#f9f9f9" />
    <rect
       class="cls-1"
       x="151.49001"
       y="60.709999"
       width="9.04"
       height="18.200001"
       id="rect13"
       style="fill:#f9f9f9" />
    <rect
       class="cls-1"
       x="151.49001"
       y="88.050003"
       width="9.04"
       height="27.129999"
       id="rect14"
       style="fill:#f9f9f9" />
    <path
       class="cls-1"
       d="m 151.49,124.23 v 26.01 l 7.83,-9.12 c 0.78,-0.98 1.21,-2.2 1.21,-3.46 v -13.43 z"
       id="path14"
       style="fill:#f9f9f9" />
    <rect
       class="cls-1"
       x="97.220001"
       y="60.709999"
       width="9.04"
       height="54.470001"
       id="rect15"
       style="fill:#f9f9f9" />
    <path
       class="cls-1"
       d="m 88.18,150.08 v -34.89 h -9.04 v 22.28 c 0,1.23 0.41,2.42 1.15,3.39 l 7.89,9.23 z"
       id="path15"
       style="fill:#f9f9f9" />
    <rect
       class="cls-1"
       x="79.129997"
       y="60.709999"
       width="9.04"
       height="44.919998"
       id="rect16"
       style="fill:#f9f9f9" />
  </g>
</svg>
